<?xml version="1.0" standalone="no"?>
<!DOCTYPE svg PUBLIC "-//W3C//DTD SVG 20010904//EN"
 "http://www.w3.org/TR/2001/REC-SVG-20010904/DTD/svg10.dtd">
<svg version="1.0" xmlns="http://www.w3.org/2000/svg"
 width="1024.000000pt" height="1024.000000pt" viewBox="0 0 1024.000000 1024.000000"
 preserveAspectRatio="xMidYMid meet">
<metadata>
Created by potrace 1.11, written by Peter Selinger 2001-2013
</metadata>
<g transform="translate(0.000000,1024.000000) scale(0.100000,-0.100000)"
fill="#000000" stroke="none">
<path d="M1305 10233 c-361 -44 -638 -175 -880 -418 -214 -213 -345 -462 -401
-760 -18 -97 -19 -228 -19 -3940 0 -3676 1 -3844 18 -3930 124 -607 555 -1038
1162 -1162 86 -17 255 -18 3940 -18 l3850 0 105 23 c146 32 237 64 365 128
116 57 263 160 353 247 216 209 362 482 418 782 18 97 19 228 19 3945 0 3728
-1 3848 -19 3935 -63 301 -191 541 -401 750 -204 205 -426 326 -728 398 l-92
22 -3830 1 c-2106 1 -3843 -1 -3860 -3z m6710 -1719 c195 -52 364 -183 450
-345 111 -212 97 -451 -48 -774 -45 -101 -291 -560 -555 -1035 -666 -1200
-1043 -1767 -1415 -2126 -300 -290 -576 -405 -940 -391 -262 10 -202 -24 -699
391 l-432 361 -32 86 c-55 143 -76 270 -75 449 1 204 22 308 90 445 69 138
158 252 346 444 207 211 414 399 1170 1062 574 503 1055 927 1328 1171 194
173 326 248 495 278 67 13 246 4 317 -16z m-3497 -4594 l589 -491 7 -46 c22
-164 -21 -491 -91 -688 -225 -628 -817 -995 -1604 -995 -990 0 -1611 654
-1709 1800 -11 126 -13 260 -5 260 3 0 91 -62 195 -137 310 -226 463 -313 547
-313 50 1 113 30 145 68 14 17 40 66 58 109 229 552 587 836 1145 908 55 7
108 13 117 14 9 0 282 -220 606 -489z"/>
</g>
</svg>
